<svg version="1" xmlns="http://www.w3.org/2000/svg" width="5046.667" height="5046.667" viewBox="0 0 3785.000000 3785.000000"><path d="M1636.3 1.7c-.4 1-36.6 102.5-80.4 225.6-43.8 123-79.8 224-80.1 224.3-.3.2-8.8 3-18.9 6-93.9 28.3-190.3 68.5-276.1 115-6.4 3.5-12.2 6.4-12.8 6.4-.5 0-97.6-46-215.8-102.1-118.1-56.2-215.5-102.4-216.6-102.7-1.4-.4-43.5 41.2-181.7 179.4C455 652.5 374 734 374 734.7c0 .6 46.1 98.2 102.5 216.8 56.4 118.6 102.5 216.1 102.5 216.7 0 .6-3.6 7.6-7.9 15.7-11.1 20.6-36.1 71.2-46 93.1-24.4 54.2-46.9 113.5-63.2 166.4-4.4 14.4-8.6 27.6-9.2 29.5l-1.2 3.4-225.5 80.1L.5 1636.6l-.3 255.6-.2 255.5 13.7 5c7.6 2.7 109.3 38.9 226 80.3l212.2 75.5 3.6 12.5c26.5 90.4 68.8 192.9 116 280.5 4.1 7.7 7.5 14.4 7.5 15 0 .5-46.1 98-102.5 216.5-56.4 118.6-102.5 216.3-102.5 217.1 0 1.4 358.8 360.9 360.2 360.9.5 0 98.2-46.3 217.3-102.9l216.5-103 17.8 9.5c82.3 44.3 173.7 82.3 267.7 111.3 12 3.8 22.3 7.4 22.7 8.2.5.8 36.8 102.4 80.7 225.9l79.9 224.5 255.4.3 255.5.2 80.4-226.1 80.5-226.1 16.5-5c94.6-28.5 189.6-68 279.5-116.2l12-6.5 216.8 103.1 216.8 103.1 180.6-180.6 180.5-180.5-103.1-217-103.1-216.9 6.5-11.9c11.7-21.3 39.7-78.3 50.8-103.4 25.4-57.3 47.9-117.7 65-174.5l5.4-18 226.1-80.4 226.1-80.4-.2-255.5-.3-255.5-224.5-79.8c-123.5-43.8-225.2-80.2-225.9-80.7-.8-.4-4.8-11.4-8.7-24.3-29.9-96.6-65.9-182.5-113-270l-7.3-13.6 100-210.4c55.1-115.7 101.5-213.5 103.2-217.2l3.1-6.8-180-180C3132.5 455 3050.8 374 3050 374.1c-.8 0-98.7 46.2-217.5 102.7l-216 102.7-15.5-8.4c-22.5-12.2-76-38.4-101.2-49.5-56.2-24.9-124.1-50-178.8-66.1l-12.5-3.7-76-213.6c-41.8-117.5-77.9-219.2-80.3-226L2147.8 0h-255.5c-242.3 0-255.4.1-256 1.7zM1931.5 708c155.3 5.6 298.6 38.2 438.5 99.8 27.5 12.1 78.4 37.8 105.1 53 94.5 54 174.9 115.3 251.4 191.7 41.7 41.6 76.9 82 110.6 127 178.8 238.4 259.9 531.5 229.8 830-23.4 232.5-115.6 451.7-266.3 633.5-40.7 49-93.7 102.6-144.1 145.6-81 69-173.7 128.2-271 172.9-181.8 83.6-383.6 119.4-585 104-230.6-17.8-449.8-102.6-632.9-244.8-197.1-153.2-340.9-365.3-410.1-604.9-41.8-144.5-55.4-301.4-39.4-453.3 32.1-305.4 182.8-586.2 420.6-783.6 222-184.4 505.2-281.2 792.8-270.9z"/><path d="M1227.5 1014.6c-42.4 32.9-77.4 63.5-108.7 95.1l-13.7 13.8-49.3 706.7-49.2 706.6 7.4 9.9c54 71.2 115.3 135.1 182.9 190.7 7.2 5.9 13.4 10.7 13.6 10.5.3-.3 23.7-373.6 43-685.9 16.2-261.6 31.5-598.7 36.1-796.8.7-28.9.7-29.2 2.8-29.2 2 0 2.8 2.7 11 35.7 35.2 142.2 77.7 288.9 136.8 472.3 31.1 96.9 30.2 93.9 343 1015.2l3 8.8h174.4l168.2-462.3c92.5-254.2 173-475.5 178.8-491.7 66.8-186.7 127.2-369.7 174.9-530 5.3-17.9 10.7-35.9 11.9-40 2.2-7.3 2.3-7.5 5.7-7.8l3.4-.3.2 69.3c.4 150 6.3 315.3 21.8 612.3 3.8 71.2 46 812 47.1 824.3l.6 7.2 4.1-3.2c49.5-38.9 111.2-99.1 154.7-150.8 14.4-17.2 28.4-34.8 40.3-50.8 10.1-13.4 10.7-14.6 10.7-19 0-2.6-19.3-314.9-43-694l-42.9-689.3-9.7-10.5c-31.8-34.3-83.2-80.5-127.7-114.8l-13.9-10.6-75 .2-75.1.3-157.4 427.5c-155.2 421.7-166.6 453-194.8 535-62.2 181.1-108.7 331.9-142 460.7l-7.9 30.3h-3.3c-2.7 0-3.4-.4-3.9-2.8-.3-1.5-4.8-19.4-10-39.8-35.3-139.8-83-299.1-148.9-496.9-11.7-35.2-88.8-255.3-171.3-489l-150-425-83.9-.2-83.8-.2-11 8.5z"/></svg>